<svg preserveAspectRatio="xMidYMid meet" data-bbox="38.28 26.693 123.44 127.208" viewBox="38.28 26.693 123.44 127.208" height="200" width="200" xmlns="http://www.w3.org/2000/svg" data-type="color" role="presentation" aria-hidden="true" aria-label=""><defs><style>#comp-kkmib2jw svg [data-color="1"] {fill: #D43C2B;}
#comp-kkmib2jw svg [data-color="2"] {fill: #FF7566;}
#comp-kkmib2jw svg [data-color="3"] {fill: #05244F;}</style></defs>
    <g>
        <path d="M128.007 130.221c14.916-16.258 14.92-45.177 0-61.439-5.872 6.618-9.433 14.882-10.707 23.501a54.114 54.114 0 0 0-.537 7.397c.041 11.075 3.787 22.135 11.244 30.541z" fill="#F26656" data-color="1"></path>
        <path d="M55.761 68.782c-14.918 16.265-14.91 45.211.021 61.46 14.976-16.881 14.974-44.558-.021-61.46z" fill="#F58B80" data-color="2"></path>
        <path d="M133.082 63.635c-8.924-10.797-22.648-18.203-41.198-18.533-18.569.333-32.302 7.756-41.223 18.573-17.363 21.053-16.466 54.987 2.707 74.695 8.902 9.151 21.741 15.233 38.518 15.531 18.285-.327 31.881-7.529 40.812-18.076 16.929-19.993 17.056-52.017.384-72.19zm-77.321 5.147c14.995 16.902 14.997 44.579.021 61.46-14.931-16.249-14.939-45.195-.021-61.46zm32.657 78.013c-10.585-.769-20.207-5.019-27.742-11.625 8.63-9.885 13.337-22.356 13.337-35.672 0-13.254-4.748-25.746-13.372-35.638 7.542-6.62 17.178-10.883 27.777-11.653v94.588zm6.932 0V52.207c10.606.769 20.235 5.033 27.777 11.646-17.711 19.512-17.707 51.788 0 71.296-7.542 6.614-17.171 10.87-27.777 11.646zm32.657-16.574c-7.458-8.406-11.204-19.466-11.244-30.541a49.35 49.35 0 0 1 .537-7.397c1.274-8.619 4.835-16.883 10.707-23.501 14.921 16.262 14.916 45.181 0 61.439z" fill="#05244F" data-color="3"></path>
        <path d="M153.052 31.465l3.398 3.324c-1.887 3.227-13.326 14.998-19.623 20.25-1.622-.72-2.703-2.071-3.671-3.512 2.292-3.191 15.916-16.936 19.896-20.062z" fill="#05244F" data-color="3"></path>
        <path d="M147.161 68.355l-3.68-3.664c.677-2.327 2.496-3.357 3.792-4.773 1.455-1.589 3.025-3.074 4.562-4.587 1.402-1.379 2.826-2.735 4.443-4.296l3.969 3.62c-1.697 2.869-4.254 4.736-6.367 6.972-2.032 2.15-4.176 4.192-6.719 6.728z" fill="#05244F" data-color="3"></path>
        <path d="M124.003 45.073l-3.869-4.174c3.772-4.277 7.745-7.962 11.804-12.018l3.811 3.348c-.206.639-.22 1.2-.507 1.494-3.575 3.657-7.19 7.275-11.239 11.35z" fill="#05244F" data-color="3"></path>
        <path d="M115.904 30.518c-2.575 2.921-5.164 5.617-8.121 8.036-1.762-1.046-2.996-2.288-3.963-4.146l8.181-7.715c1.687.561 2.812 2.063 3.903 3.825z" fill="#05244F" data-color="3"></path>
        <path d="M149.514 80.282c1.674-1.689 3.287-3.348 4.935-4.97 1.053-1.037 2.159-2.022 3.437-3.212l3.834 3.774c-2.393 3.24-5.202 5.729-8.053 8.318-1.867-.774-2.954-2.163-4.153-3.91z" fill="#05244F" data-color="3"></path>
    </g>
</svg>