<svg preserveAspectRatio="xMidYMid meet" data-bbox="57.12 44.187 80.897 110.071" viewBox="57.12 44.187 80.897 110.071" height="200" width="200" xmlns="http://www.w3.org/2000/svg" data-type="color" role="presentation" aria-hidden="true" aria-label=""><defs><style>#comp-kkmi8io2 svg [data-color="1"] {fill: #FF7566;}
#comp-kkmi8io2 svg [data-color="2"] {fill: #05244F;}
#comp-kkmi8io2 svg [data-color="3"] {fill: #D43C2B;}</style></defs>
    <g>
        <path d="M130.734 78.39c-1.319-1.565-2.679-3.18-3.302-5.096-.648-1.997-.501-4.159-.359-6.249.143-2.111.279-4.105-.473-5.138-.769-1.056-2.721-1.543-4.788-2.059-2.027-.507-4.117-1.029-5.794-2.25-1.659-1.207-2.788-3.021-3.88-4.775-1.135-1.823-2.207-3.545-3.479-3.958-1.173-.381-3.001.354-4.938 1.132-1.973.793-4.009 1.612-6.153 1.612-2.144 0-4.18-.819-6.149-1.61-1.957-.787-3.833-1.492-4.943-1.133-1.271.414-2.343 2.135-3.478 3.958-1.095 1.758-2.224 3.57-3.88 4.775-1.679 1.222-3.771 1.745-5.793 2.25-2.069.517-4.021 1.005-4.788 2.06-.752 1.033-.617 3.027-.474 5.138.142 2.094.288 4.254-.359 6.249-.623 1.918-1.984 3.533-3.3 5.095-1.397 1.658-2.717 3.224-2.717 4.61 0 1.386 1.32 2.952 2.717 4.61 1.318 1.564 2.678 3.178 3.301 5.095.648 1.997.501 4.159.359 6.249-.143 2.115-.278 4.106.473 5.138.768 1.055 2.719 1.542 4.784 2.059l.101.025.008-.02.518.118 1.412.416a17.158 17.158 0 0 1 1.57.536l.093.037c.136.055.273.114.409.175l1.334.721c.121.079.238.159.352.241a8.7 8.7 0 0 1 1.081.939c.932.942 1.703 2.092 2.397 3.193l.403.644c1.134 1.823 2.206 3.545 3.478 3.958 1.172.38 3.003-.354 4.941-1.133 1.666-.669 3.388-1.361 5.193-1.556l.065.224.05-.112-.014-.123.073-.007-.073.007.672-.072.184-.019.783.085.106.237-.051.032.034.342.043-.599.076.01c.595.063 1.252.195 1.972.399 1.095.312 2.158.738 3.186 1.151 1.709.688 3.475 1.402 4.661 1.199.096-.016.191-.036.282-.065.739-.24 1.473-.934 2.38-2.251l.217-.322c.147-.22.292-.446.437-.676l.443-.708c1.093-1.755 2.223-3.569 3.88-4.776.113-.083.231-.164.351-.241l1.339-.724c.133-.06.271-.119.412-.176.215-.085.349-.136.483-.186.433-.156.781-.268 1.133-.372l1.958-.578.022.05.096-.024c2.069-.517 4.02-1.005 4.788-2.06.752-1.033.617-3.027.474-5.138-.142-2.095-.288-4.255.359-6.249.623-1.917 1.982-3.531 3.298-5.092 1.4-1.661 2.72-3.226 2.72-4.613 0-1.387-1.319-2.952-2.716-4.609zm-33.166 33.832c-16.114 0-29.224-13.11-29.224-29.224s13.11-29.224 29.224-29.224 29.224 13.11 29.224 29.224-13.11 29.224-29.224 29.224z" fill="#F58B80" data-color="1"></path>
        <path d="M97.568 53.773c-16.114 0-29.224 13.11-29.224 29.224s13.11 29.224 29.224 29.224 29.224-13.11 29.224-29.224-13.11-29.224-29.224-29.224zm0 53.881c-13.596 0-24.656-11.061-24.656-24.656s11.061-24.657 24.656-24.657 24.656 11.061 24.656 24.657-11.06 24.656-24.656 24.656z" fill="#05244F" data-color="2"></path>
        <path fill="#F26656" d="M109.498 78.343l-8.244-1.198-3.256-6.598-.43-.872-.405.819-3.282 6.651-8.243 1.198 5.964 5.814-1.407 8.21 7.373-3.877 7.373 3.877-1.408-8.21 5.965-5.814z" data-color="3"></path>
        <path d="M108.44 85.751l2.352-2.292 8.521-8.306-14.269-2.073-.757-.11-.256-.518-6.463-13.097-5.817 11.787-.903 1.829-3.817.555-11.209 1.629 6.299 6.14 4.574 4.458-1.077 6.277-1.49 8.688 8.98-4.721 4.459-2.344 3.647 1.917 9.792 5.148-1.923-11.211-.643-3.756zM97.568 88.49l-7.373 3.877 1.408-8.21-5.964-5.814 8.243-1.198 3.282-6.65.404-.819.431.872 3.256 6.597 8.244 1.198-5.965 5.814 1.408 8.21-7.374-3.877z" fill="#05244F" data-color="2"></path>
        <path d="M130.293 106.777c1.299-1.785 1.509-3.881 1.452-6.015a51.845 51.845 0 0 0-.115-2.121c-.118-1.734-.229-3.371.146-4.529.347-1.069 1.368-2.28 2.449-3.562.774-.918 1.584-1.895 2.262-2.951.879-1.37 1.53-2.877 1.53-4.602 0-1.641-.588-3.085-1.401-4.401-.702-1.136-1.57-2.178-2.395-3.157-1.08-1.281-2.099-2.491-2.445-3.557-.375-1.156-.264-2.792-.146-4.53.065-.954.124-1.918.117-2.868-.015-1.872-.308-3.691-1.454-5.266-1.42-1.952-3.582-2.784-5.831-3.401a71.547 71.547 0 0 0-1.544-.403c-1.672-.418-3.251-.812-4.212-1.512-.938-.682-1.789-2.048-2.69-3.496l-.223-.355c-1.395-2.233-3.008-4.652-5.722-5.533-2.748-.892-5.445.19-8.064 1.243a73.59 73.59 0 0 1-.776.308c-1.311.515-2.612.969-3.662.969-1.031 0-2.305-.438-3.593-.942-.285-.112-.571-.225-.855-.339-2.608-1.048-5.306-2.131-8.054-1.239-2.839.922-4.476 3.529-5.917 5.843a1.165 1.165 0 0 1-.029.046c-.901 1.447-1.751 2.813-2.689 3.496-.96.699-2.54 1.093-4.215 1.512-.3.075-.601.151-.901.228-2.473.638-4.916 1.438-6.471 3.575-1.297 1.781-1.509 3.873-1.453 6.004.019.711.067 1.426.116 2.135.117 1.733.228 3.369-.147 4.525-.346 1.066-1.366 2.276-2.449 3.561-.614.728-1.252 1.494-1.829 2.305-1.095 1.538-1.963 3.249-1.963 5.249 0 2.083.941 3.852 2.102 5.44a38.784 38.784 0 0 0 1.696 2.121c1.079 1.28 2.097 2.489 2.443 3.555.375 1.156.265 2.792.147 4.529-.032.477-.061.956-.085 1.436-.116 2.367-.015 4.725 1.422 6.7 1.6 2.198 4.138 2.981 6.684 3.629l-14.276 31.896 15.528 1.121 11.181 10.834 13.607-30.402 13.607 30.402 11.181-10.834 15.528-1.121-14.276-31.895c2.544-.649 5.083-1.432 6.684-3.631zm-47.838 39.662l-7.69-7.452-10.681-.771 11.401-25.472.433-.967.073.039a4.62 4.62 0 0 1 .44.275c.706.514 1.372 1.44 1.994 2.399.059.092.121.181.179.273l.526.84c.624 1.001 1.269 2.037 2.044 2.989 1.205 1.481 2.478 2.424 3.892 2.883.176.058.352.106.528.148l.197.039c.111.023.223.046.335.063l.132.016.126.015c.09.011.182.022.27.028l.131.006.132.005c.221.011.476.009.719-.005l.15-.011c.106-.008.213-.018.318-.029l.167-.019c.117-.015.234-.033.351-.052l.109-.017c.144-.025.288-.054.43-.085l1.242-.332 1.035-.353a59.295 59.295 0 0 0 1.685-.656c.416-.167.825-.331 1.288-.506l-11.956 26.709zm-2.816-31.153zm8.066 5.898zm10.915-6.725l-.001-.003-.057-.006h-.003l-.076-.01v.002l-.78-.085-.319.004-.882.094.001.009c-1.766.21-3.453.882-5.086 1.537-1.938.779-3.769 1.513-4.941 1.133-1.272-.413-2.344-2.135-3.478-3.958l-.403-.644c-.694-1.102-1.465-2.251-2.397-3.193a8.7 8.7 0 0 0-1.081-.939 7.236 7.236 0 0 0-.352-.241l-1.334-.721a11.96 11.96 0 0 0-.409-.175l-.093-.037a18.427 18.427 0 0 0-.487-.184 21.028 21.028 0 0 0-1.083-.352l-1.412-.416-.518-.118-.008.02-.101-.025c-2.065-.516-4.016-1.004-4.784-2.059-.751-1.032-.616-3.023-.473-5.138.142-2.09.289-4.252-.359-6.249-.623-1.917-1.982-3.531-3.301-5.095-1.397-1.658-2.717-3.224-2.717-4.61 0-1.387 1.32-2.953 2.717-4.61 1.316-1.562 2.677-3.176 3.3-5.095.647-1.994.501-4.154.359-6.249-.144-2.111-.279-4.105.474-5.138.768-1.055 2.719-1.543 4.788-2.06 2.022-.505 4.114-1.027 5.793-2.25 1.656-1.205 2.785-3.017 3.88-4.775 1.135-1.823 2.207-3.544 3.478-3.958 1.11-.359 2.986.347 4.943 1.133 1.969.792 4.006 1.61 6.149 1.61 2.144 0 4.18-.819 6.153-1.612 1.937-.778 3.765-1.513 4.938-1.132 1.272.413 2.344 2.135 3.479 3.958 1.092 1.755 2.221 3.569 3.88 4.775 1.677 1.221 3.767 1.744 5.794 2.25 2.067.516 4.02 1.003 4.788 2.059.752 1.033.616 3.027.473 5.138-.142 2.09-.289 4.252.359 6.249.623 1.917 1.982 3.531 3.302 5.096 1.397 1.657 2.716 3.222 2.716 4.608 0 1.387-1.32 2.953-2.72 4.613-1.315 1.561-2.675 3.175-3.298 5.092-.647 1.994-.501 4.154-.359 6.249.144 2.111.279 4.104-.474 5.138-.768 1.055-2.719 1.543-4.788 2.06l-.096.024-.022-.05-1.958.578c-.352.104-.7.216-1.133.372a13.079 13.079 0 0 0-.895.362l-1.339.724c-.12.078-.238.158-.351.241-1.658 1.207-2.788 3.021-3.88 4.776l-.443.708c-.146.23-.29.456-.437.676l-.217.322c-.907 1.317-1.642 2.011-2.38 2.251a2.027 2.027 0 0 1-.282.065c-1.186.203-2.951-.511-4.661-1.199-1.028-.413-2.091-.839-3.186-1.151a11.911 11.911 0 0 0-1.91-.389zm32.432 23.758l-10.681.771-7.69 7.452-11.956-26.711.014.005c.417.158.843.329 1.28.504 2.608 1.047 5.305 2.131 8.052 1.238 2.857-.928 4.498-3.563 5.945-5.889.153-.245.303-.486.454-.724.19-.301.38-.595.57-.875.633-.928 1.162-1.531 1.681-1.908a3.31 3.31 0 0 1 .233-.153c.061-.037.124-.074.226-.13l.039-.021.536 1.199 11.297 25.242z" fill="#05244F" data-color="2"></path>
    </g>
</svg>