<svg preserveAspectRatio="xMidYMid meet" data-bbox="58.112 45.804 83.778 108.395" viewBox="58.112 45.804 83.778 108.395" height="200" width="200" xmlns="http://www.w3.org/2000/svg" data-type="color" role="presentation" aria-hidden="true" aria-label=""><defs><style>#comp-kid2nqb4 svg [data-color="1"] {fill: #05244F;}
#comp-kid2nqb4 svg [data-color="2"] {fill: #D43C2B;}
#comp-kid2nqb4 svg [data-color="3"] {fill: #FF7566;}</style></defs>
    <g>
        <path d="M78.024 60.876c2.01.577 1.253 2.877 1.399 4.436.002 6.545-.2 13.098.053 19.633.097 17.858 22.44 26.814 34.924 14.064 4.12-3.9 6.123-8.825 6.143-14.515.022-6.26.009-12.521.027-18.781.014-5.024-.408-4.048 4.301-5.815 2.466-.926 5.144-1.364 7.632-3.008-9.843-4.021-19.982-6.904-29.93-10.629-1.883-.673-3.504-.565-5.315.073-8.976 3.164-17.979 6.252-26.973 9.365-.924.32-1.881.572-2.729 1.406 3.479 1.436 6.922 2.58 10.468 3.771zm36.924 27.565c-5.301 17.112-29.294 14.024-30.397-3.463-.115-2.826-.019-5.662-.019-8.967 10.49 3.225 20.406 3.232 30.289.201.732 3.06.783 9.873.127 12.229zm.453-21.919c.031 3.871-.148 4.244-3.942 5.324-7.668 2.182-15.37 2.088-23.053-.003-2.012-.677-4.366-1.453-3.914-4.091.169-1.374-.25-2.803.376-4.244 2.298.193 4.31 1.307 6.451 1.953 2.97.896 5.903 1.917 8.852 2.885a1276.74 1276.74 0 0 1 14.751-4.947c.671 1.134.471 2.147.479 3.123zM85.737 55.761c4.005-1.393 8-2.818 12.022-4.159 1.037-.346 2.065-.808 3.282-.376 5.185 1.838 10.4 3.593 15.604 5.378l-.039.722c-5.07 1.751-10.143 3.494-15.207 5.263-.985.344-1.926.31-2.893-.026-5.066-1.761-10.135-3.515-15.36-5.325.794-.992 1.725-1.176 2.591-1.477z" fill="#05244F" data-color="1"></path>
        <path d="M141.798 123.393c-.053-13.076-10.585-15.718-20.488-20.398-.744-.341-1.478-.897-2.393-.446-.863 1.146-1.393 2.443-1.743 3.828 1.004 1.132 2.438 1.472 3.694 2.091 5.954 3.231 15.439 5.079 15.638 13.301.282 8.67.101 17.355.097 26.035 0 .656-.407 1.032-1.059 1.055-18.073.157-36.15.011-54.224.059-5.124 0-10.248.017-15.371-.008-2.647-.013-2.682-.047-2.688-2.543-.018-7.399.022-14.799-.016-22.198-.029-5.572 2.478-9.489 7.502-11.829 3.821-1.863 7.823-3.448 11.557-5.454.265-.195.487-.78.388-1.075-.313-.936-.745-1.84-1.21-2.714-.385-.722-.996-.907-1.785-.54-3.865 1.798-7.777 3.5-11.603 5.376-6.647 3.259-9.94 8.659-9.939 16.064.001 8.965-.009 17.929.012 26.894.002.961-.259 1.978.341 2.866 27.3.983 54.945-.027 82.357.278.289-.036.51-.204.769-.41.505-10.026.094-20.171.164-30.232z" fill="#05244F" data-color="1"></path>
        <path d="M100.257 133.194l-5.729-5.289c-1.327 1.185-2.561 2.079-3.148 3.196l8.835 9.006c.182-.079.489-.124.666-.3 4.937-4.903 9.859-9.82 14.788-14.73.706-.703.905-1.409.101-2.169-.818-.774-1.64-1.544-2.68-2.523l-12.833 12.809z" fill="#05244F" data-color="1"></path>
        <path d="M116.606 57.326c-5.07 1.752-10.143 3.494-15.207 5.263-.986.344-1.926.31-2.893-.026-5.066-1.761-10.135-3.515-15.36-5.325.793-.991 1.724-1.175 2.589-1.476 4.005-1.393 8-2.818 12.022-4.159 1.037-.346 2.065-.808 3.282-.376 5.186 1.838 10.4 3.593 15.604 5.378-.011.239-.024.48-.037.721z" fill="#F26656" data-color="2"></path>
        <path d="M84.868 63.509c2.298.193 4.31 1.307 6.451 1.953 2.97.896 5.903 1.917 8.852 2.885 2.81-.953 5.618-1.911 8.431-2.856 2.123-.713 4.253-1.408 6.32-2.092.67 1.134.47 2.147.478 3.123.031 3.871-.148 4.244-3.942 5.324-7.668 2.182-15.37 2.088-23.053-.003-.542-.148-1.048-.426-1.583-.606-1.676-.566-2.561-1.614-2.331-3.484.17-1.375-.249-2.804.377-4.244z" fill="#F58B80" data-color="3"></path>
    </g>
</svg>